<svg id="Capa_1" enable-background="new 0 0 512 512" height="512" viewBox="0 0 512 512" width="512" xmlns="http://www.w3.org/2000/svg"><g><path d="m512 256c0 42.22-10.22 82.06-28.33 117.16-6.55 12.7-14.12 24.78-22.62 36.13-46.69 62.35-121.16 102.71-205.05 102.71s-158.36-40.36-205.05-102.71c-8.5-11.35-16.07-23.43-22.62-36.13-18.11-35.1-28.33-74.94-28.33-117.16 0-42.21 10.22-82.05 28.33-117.15 2.21-4.29 4.53-8.5 6.97-12.63 1.32-2.24 2.67-4.46 4.05-6.66 1.18-1.86 2.37-3.7 3.59-5.52 45.9-68.75 124.19-114.04 213.06-114.04s167.16 45.29 213.06 114.04c5.32 7.96 10.2 16.24 14.61 24.8 18.11 35.1 28.33 74.94 28.33 117.16z" fill="#ffbb16"/><g><path d="m483.67 114.04v259.12c-6.55 12.7-14.12 24.78-22.62 36.13l-205.05 102.71-220.7-385.78-6.97-12.18z" fill="#f93d6e"/><path d="m255.999 228.08-209.366-104.871-18.306-9.169 18.306-9.17 209.366-104.87 227.671 114.04z" fill="#ff78a2"/><path d="m256 228.08v283.92l-205.05-102.71c-8.5-11.35-16.07-23.43-22.62-36.13v-259.12l11.02 5.52z" fill="#e41753"/></g><g><path d="m132.874 419.676c-29.407-12.112-54.508-46.671-58.387-80.388-.362-3.15-.536-6.282-.519-9.316.066-11.579 8.641-17.456 19.153-13.126 10.513 4.33 18.981 17.226 18.916 28.805-.006 1.105.056 2.24.187 3.373 1.385 12.037 10.365 24.386 20.888 28.72 11.694 4.816 21.267-1.744 21.34-14.624s-9.381-27.278-21.075-32.094c-10.513-4.33-18.981-17.226-18.916-28.805.066-11.579 8.641-17.456 19.153-13.126 11.694 4.816 21.267-1.745 21.34-14.625s-9.381-27.278-21.075-32.094c-10.115-4.166-18.911.14-20.916 10.238-2.091 10.528-12.139 13.809-22.44 7.328-10.303-6.48-16.96-20.268-14.87-30.795 5.614-28.272 30.202-40.342 58.464-28.702 32.685 13.462 59.111 53.703 58.906 89.704-.097 17.093-6.181 30.205-16.042 37.821 9.729 15.685 15.636 33.735 15.539 50.829-.203 36.002-26.961 54.339-59.646 40.877z" fill="#f9f6f6"/></g><path d="m324.438 448.709c-5.06 2.546-9.931 2.821-13.55.762-3.636-2.069-5.711-6.324-5.768-11.828-.006-.637-.655-63.89-.822-88.064-.137-19.806-.719-86.935-.724-87.611-.048-5.516 1.931-11.828 5.501-17.544 3.57-5.717 8.437-10.369 13.529-12.931l45.925-23.106c50.635-25.476 84.959 1.086 85.409 66.097.197 28.495-7.174 58.678-20.755 84.988-15.023 29.101-36.854 52.206-61.472 65.061-13.075 6.827-45.813 23.436-47.199 24.139-.026.013-.05.025-.074.037zm17.662-185.303c.185 21.634.457 54.087.546 66.878.106 15.295.405 46.33.612 67.128 9.903-5.048 21.198-10.826 27.494-14.113 13.051-6.814 23.755-18.186 31.814-33.798 8.533-16.528 13.157-36.317 13.023-55.722-.139-20.111-4.787-35.474-13.086-43.258-8.061-7.56-19.395-7.747-33.686-.557z" fill="#f9f6f6"/></g></svg>